<?xml version="1.0" encoding="UTF-8"?><svg xmlns="http://www.w3.org/2000/svg" width="77.12" height="38.62" viewBox="0 0 77.12 38.62"><defs><style>.d{fill:#fff;}.e{fill:#4c9c2e;}</style></defs><g id="a"/><g id="b"><g id="c"><g><g><g><path class="e" d="M13.69,22.7c0-6.07,2.96-11.32,11.77-11.32,0,6.08-4,11.32-11.77,11.32"/><path class="e" d="M27.8,38.62c1.65,0,2.92-.23,4.22-.71,0-4.8-2.86-8.23-7.92-10.7-3.87-1.94-8.64-2.95-12.98-2.95,1.91-5.72,.52-12.82-1.33-16.72-2.05,4.08-3.32,11.08-1.36,16.78-3.86,.28-6.92,1.96-8.22,4.18-.1,.17-.29,.53-.18,.59,.09,.05,.24-.1,.33-.19,1.39-1.29,3.24-1.92,5.01-1.92,4.1,0,6.99,3.4,9.03,5.44,4.39,4.39,8.69,6.2,13.38,6.2"/></g><g><path class="d" d="M44.73,16.08l-2.14,1.09c-.11,.05-.21,.13-.32,.13-.08,0-.16-.05-.21-.19-.48-1.15-1.17-1.58-1.9-1.58h-1.76c-1.04,0-1.92,.88-1.92,1.92v7.9c0,1.04,.88,1.92,1.92,1.92h1.31c1.07,0,1.9-.85,1.9-1.92v-1.25c0-.19-.08-.27-.27-.27h-2.51c-.19,0-.27-.08-.27-.27v-2.27c0-.19,.08-.27,.27-.27h5.58c.19,0,.27,.08,.27,.27v4.06c0,2.78-1.95,4.73-4.97,4.73h-1.31c-3.04,0-4.97-1.95-4.97-4.73v-7.9c0-2.78,1.92-4.73,4.97-4.73h1.76c2.22,0,3.42,.91,4.22,2.16,.24,.4,.51,.83,.51,.99,0,.08-.05,.13-.16,.19Z"/><path class="d" d="M53.22,29.83h-6.01c-.19,0-.27-.08-.27-.27V13.27c0-.19,.08-.27,.27-.27h6.01c3.04,0,4.97,1.95,4.97,4.97v.27c0,.99-.64,2.14-1.42,2.88-.08,.05-.11,.13-.11,.19s.03,.13,.11,.19c.77,.75,1.42,2.03,1.42,3.02v.4c0,3.02-1.92,4.91-4.97,4.91Zm1.92-12.09c0-1.04-.88-1.92-1.92-1.92h-2.94c-.19,0-.27,.08-.27,.27v3.55c0,.19,.08,.27,.27,.27h2.94c1.04,0,1.92-.88,1.92-1.92v-.24Zm0,6.86c0-1.07-.85-1.9-1.92-1.9h-2.94c-.19,0-.27,.08-.27,.27v3.79c0,.19,.08,.27,.27,.27h2.94c1.04,0,1.92-.83,1.92-1.92v-.51Z"/><path class="d" d="M63.53,29.83h-2.54c-.19,0-.27-.08-.27-.27V13.27c0-.19,.08-.27,.27-.27h2.54c.19,0,.27,.08,.27,.27V29.56c0,.19-.08,.27-.27,.27Z"/><path class="d" d="M76.85,15.81h-6.35c-.19,0-.27,.08-.27,.27v3.55c0,.19,.08,.27,.27,.27h5.21c.19,0,.27,.08,.27,.27v2.27c0,.19-.08,.27-.27,.27h-5.21c-.19,0-.27,.08-.27,.27v6.59c0,.19-.08,.27-.27,.27h-2.54c-.19,0-.27-.08-.27-.27V13.27c0-.19,.08-.27,.27-.27h9.42c.19,0,.27,.08,.27,.27v2.27c0,.19-.08,.27-.27,.27Z"/></g></g><g><path class="d" d="M16.68,6.99c-.07,0-.12-.02-.15-.06-.03-.04-.04-.1-.03-.16L17.87,.33c.01-.07,.04-.13,.09-.17,.05-.04,.11-.06,.17-.06h.51c.07,0,.12,.02,.16,.06,.03,.04,.04,.1,.03,.17l-.58,2.72h3.39l.58-2.72c.01-.07,.04-.13,.09-.17,.05-.04,.11-.06,.18-.06h.5c.07,0,.12,.02,.16,.06,.03,.04,.04,.1,.03,.17l-1.37,6.43c-.01,.07-.04,.12-.09,.16-.05,.04-.11,.06-.18,.06h-.5c-.07,0-.12-.02-.16-.06-.03-.04-.04-.1-.03-.16l.6-2.82h-3.39l-.6,2.82c-.01,.07-.04,.12-.09,.16-.05,.04-.11,.06-.18,.06h-.51Z"/><path class="d" d="M25.68,7.09c-.48,0-.87-.1-1.18-.29-.31-.19-.52-.46-.64-.79s-.15-.72-.07-1.16c.01-.11,.04-.25,.08-.43,.04-.17,.08-.31,.11-.42,.11-.44,.28-.83,.51-1.16s.54-.6,.91-.79c.37-.19,.8-.29,1.29-.29s.88,.09,1.19,.29,.53,.45,.65,.79c.12,.33,.15,.72,.07,1.16-.02,.11-.05,.25-.08,.42s-.07,.32-.09,.43c-.11,.43-.28,.82-.52,1.16-.23,.34-.53,.6-.9,.79-.37,.19-.8,.29-1.31,.29Zm.04-.76c.41,0,.78-.13,1.09-.39,.31-.26,.53-.64,.66-1.14,.03-.1,.06-.22,.09-.37,.03-.15,.06-.28,.08-.37,.09-.5,.04-.88-.13-1.14-.17-.26-.46-.39-.88-.39s-.77,.13-1.08,.39c-.32,.26-.54,.64-.66,1.14-.03,.1-.06,.22-.09,.37-.03,.15-.06,.28-.07,.37-.08,.5-.05,.88,.12,1.14,.16,.26,.45,.39,.87,.39Z"/><path class="d" d="M31.21,7.09c-.37,0-.67-.05-.92-.14-.24-.09-.43-.2-.57-.33-.14-.13-.23-.26-.28-.39-.05-.13-.07-.24-.06-.32,.01-.07,.05-.13,.1-.17s.11-.06,.16-.06h.44s.06,0,.09,.01c.03,0,.05,.04,.07,.08,.07,.09,.14,.18,.23,.28s.2,.17,.34,.23c.14,.06,.33,.09,.57,.09,.33,0,.62-.06,.86-.19s.4-.32,.45-.57c.03-.16,.01-.29-.06-.39s-.21-.19-.41-.27c-.2-.08-.5-.16-.88-.25-.37-.09-.66-.21-.86-.34-.2-.13-.33-.29-.38-.48-.06-.19-.06-.4-.01-.63,.06-.24,.18-.48,.37-.7,.19-.23,.44-.41,.75-.56,.31-.14,.68-.22,1.1-.22,.34,0,.62,.04,.85,.13,.23,.08,.41,.19,.54,.32,.13,.13,.22,.25,.27,.38,.05,.12,.07,.23,.05,.32,0,.07-.04,.12-.09,.16s-.11,.06-.17,.06h-.4s-.08,0-.11-.03-.05-.04-.06-.07c-.05-.09-.11-.17-.18-.26-.07-.09-.17-.16-.29-.21s-.31-.08-.54-.08c-.33,0-.59,.07-.78,.21s-.31,.31-.36,.52c-.03,.12-.01,.24,.04,.33,.05,.1,.17,.19,.35,.27,.19,.08,.47,.16,.85,.26,.41,.08,.73,.2,.95,.34,.22,.14,.36,.31,.43,.5s.07,.41,.02,.66c-.05,.28-.18,.53-.39,.76s-.49,.41-.83,.55c-.34,.13-.75,.2-1.21,.2Z"/><path class="d" d="M36.6,6.99c-.43,0-.75-.07-.96-.21-.21-.14-.33-.34-.37-.6-.04-.26-.02-.57,.05-.92l.55-2.6h-.77c-.07,0-.11-.02-.15-.06s-.04-.1-.03-.16l.07-.33c.01-.07,.05-.12,.1-.16s.11-.06,.18-.06h.77l.35-1.64c.01-.07,.04-.12,.09-.16,.05-.04,.11-.06,.17-.06h.46c.07,0,.12,.02,.15,.06,.03,.04,.04,.1,.03,.16l-.34,1.64h1.22c.07,0,.11,.02,.15,.06,.03,.04,.04,.1,.03,.16l-.07,.33c-.01,.07-.05,.12-.1,.16-.05,.04-.11,.06-.18,.06h-1.22l-.54,2.53c-.04,.2-.07,.38-.08,.53-.01,.15,.02,.27,.1,.34,.08,.08,.23,.12,.44,.12h.65c.07,0,.11,.02,.14,.06,.03,.04,.04,.1,.02,.16l-.07,.35c-.01,.07-.04,.12-.09,.16-.05,.04-.11,.06-.17,.06h-.59Z"/><path class="d" d="M40.43,7.09c-.45,0-.83-.1-1.12-.29-.29-.19-.49-.46-.61-.81-.11-.35-.13-.76-.07-1.24,.01-.08,.03-.2,.06-.33,.03-.13,.06-.25,.08-.33,.13-.47,.33-.87,.59-1.23,.26-.35,.58-.62,.95-.81s.78-.29,1.23-.29c.5,0,.89,.1,1.18,.31,.29,.21,.48,.51,.58,.9,.1,.39,.09,.84,0,1.36l-.04,.17c-.01,.07-.05,.13-.1,.17-.06,.04-.12,.06-.18,.06h-3.4s0,.02,0,.04c0,.02,0,.04-.01,.05-.04,.27-.03,.52,.02,.75,.05,.23,.16,.42,.33,.57,.17,.14,.39,.22,.66,.22,.24,0,.44-.04,.62-.11s.32-.15,.43-.24c.11-.09,.19-.16,.24-.21,.08-.08,.14-.13,.17-.14,.04-.02,.09-.02,.17-.02h.47c.06,0,.1,.02,.14,.05s.04,.09,.03,.15c-.03,.1-.1,.22-.23,.36-.12,.14-.29,.28-.51,.42-.22,.14-.47,.25-.75,.34-.28,.09-.59,.13-.92,.13Zm-.7-3.03h2.69v-.03c.09-.29,.1-.56,.03-.79s-.18-.41-.36-.55c-.18-.13-.41-.2-.69-.2s-.54,.07-.76,.2c-.22,.13-.41,.32-.57,.55s-.27,.49-.34,.79v.03Z"/><path class="d" d="M46.01,7.09c-.36,0-.66-.06-.91-.19-.24-.13-.43-.3-.56-.52-.13-.22-.21-.47-.25-.75-.03-.28-.03-.58,.02-.9,.02-.1,.04-.2,.06-.29s.04-.19,.07-.3c.08-.31,.19-.6,.32-.88,.14-.28,.31-.53,.51-.76,.2-.23,.45-.4,.73-.53,.29-.13,.62-.19,.99-.19,.41,0,.73,.07,.96,.21,.23,.14,.41,.31,.52,.51l.49-2.26c.01-.07,.04-.12,.09-.16,.05-.04,.11-.06,.17-.06h.47c.07,0,.12,.02,.16,.06,.03,.04,.04,.1,.03,.16l-1.39,6.54c-.01,.07-.04,.12-.09,.16-.05,.04-.11,.06-.18,.06h-.44c-.07,0-.12-.02-.15-.06-.04-.04-.05-.1-.03-.16l.09-.41c-.2,.21-.43,.39-.68,.53-.25,.14-.59,.21-1,.21Zm.21-.8c.32,0,.61-.08,.86-.23,.25-.15,.45-.34,.6-.58,.15-.23,.26-.47,.32-.71,.03-.1,.06-.23,.09-.38,.03-.15,.05-.27,.07-.38,.05-.23,.04-.46,0-.68-.05-.22-.16-.41-.32-.55-.17-.14-.41-.22-.72-.22s-.59,.07-.81,.22c-.23,.15-.41,.34-.56,.58-.15,.24-.26,.5-.35,.77-.03,.1-.05,.19-.07,.29s-.04,.19-.05,.29c-.04,.28-.04,.53-.01,.77s.12,.43,.27,.58c.15,.15,.38,.22,.69,.22Z"/><path class="d" d="M55.24,7.09c-.39,0-.71-.07-.96-.21-.25-.14-.43-.32-.54-.53l-.09,.41c-.01,.07-.05,.12-.1,.16-.05,.04-.11,.06-.18,.06h-.45c-.07,0-.12-.02-.15-.06-.03-.04-.04-.1-.03-.16L54.13,.23c.01-.07,.05-.12,.1-.16s.11-.06,.18-.06h.48c.07,0,.11,.02,.14,.06,.03,.04,.04,.1,.02,.16l-.47,2.26c.2-.2,.43-.37,.69-.51s.57-.21,.96-.21,.67,.06,.92,.19c.24,.13,.43,.3,.56,.51,.13,.21,.21,.46,.25,.74s.03,.57-.02,.88c-.01,.11-.03,.22-.06,.33s-.06,.23-.09,.33c-.1,.41-.26,.8-.47,1.15-.22,.35-.5,.63-.84,.85s-.75,.33-1.24,.33Zm-.1-.8c.33,0,.6-.07,.83-.22,.22-.15,.41-.34,.56-.59,.15-.24,.26-.5,.34-.77,.03-.1,.06-.19,.08-.29s.03-.19,.04-.29c.05-.28,.06-.53,.03-.77-.03-.24-.11-.43-.26-.58-.14-.15-.39-.22-.73-.22-.31,0-.59,.07-.84,.22-.25,.14-.45,.33-.6,.55s-.26,.45-.33,.68c-.03,.11-.05,.23-.08,.38-.03,.15-.05,.27-.06,.38-.05,.24-.05,.48,0,.71,.04,.23,.14,.42,.31,.58,.16,.15,.4,.23,.73,.23Z"/><path class="d" d="M59,8.86c-.08,0-.13-.03-.16-.1-.03-.07,0-.14,.05-.23l1.21-1.89-.96-4.51c-.01-.07,0-.13,.03-.18s.1-.08,.2-.08h.43c.07,0,.12,.01,.16,.04,.03,.03,.05,.07,.06,.12l.76,3.59,2.3-3.59s.06-.09,.11-.12c.05-.03,.1-.05,.18-.05h.51c.06,0,.11,.03,.15,.08,.04,.05,.04,.12-.01,.21l-4.22,6.54s-.07,.08-.11,.12c-.04,.03-.1,.05-.17,.05h-.5Z"/></g></g></g></g></svg>