<?xml version="1.0" encoding="UTF-8"?><svg id="Layer_1" xmlns="http://www.w3.org/2000/svg" width="800" height="800" viewBox="0 0 800 800"><defs><style>.cls-1{fill:#fff;}</style></defs><path class="cls-1" d="M362.65,393.82c0-97.57,47.62-182.01,189.3-182.01,0,97.78-64.32,182.01-189.3,182.01"/><path class="cls-1" d="M589.65,650c26.54,0,46.93-3.78,67.88-11.49,0-77.22-46.06-132.39-127.43-172.15-62.27-31.22-138.9-47.39-208.8-47.39,30.67-92.05,8.31-206.27-21.41-268.97-32.93,65.69-53.48,178.29-21.86,269.91-62.09,4.53-111.32,31.57-132.15,67.23-1.57,2.72-4.73,8.52-2.84,9.51,1.48,.79,3.89-1.63,5.37-2.99,22.43-20.77,52.14-30.89,80.66-30.89,65.91,0,112.44,54.7,145.32,87.56,70.66,70.65,139.72,99.8,215.26,99.66"/></svg>